<svg id="wave" style="transform:rotate(0deg); transition: 0.3s" viewBox="0 0 1440 430" version="1.1" xmlns="http://www.w3.org/2000/svg"><defs><linearGradient id="sw-gradient-0" x1="0" x2="0" y1="1" y2="0"><stop stop-color="rgba(244, 209, 238, 1)" offset="0%"></stop><stop stop-color="rgba(247, 207, 234, 1)" offset="100%"></stop></linearGradient></defs><path style="transform:translate(0, 0px); opacity:1" fill="url(#sw-gradient-0)" d="M0,172L40,179.2C80,186,160,201,240,179.2C320,158,400,100,480,100.3C560,100,640,158,720,150.5C800,143,880,72,960,71.7C1040,72,1120,143,1200,172C1280,201,1360,186,1440,157.7C1520,129,1600,86,1680,64.5C1760,43,1840,43,1920,93.2C2000,143,2080,244,2160,265.2C2240,287,2320,229,2400,222.2C2480,215,2560,258,2640,272.3C2720,287,2800,272,2880,272.3C2960,272,3040,287,3120,293.8C3200,301,3280,301,3360,272.3C3440,244,3520,186,3600,179.2C3680,172,3760,215,3840,200.7C3920,186,4000,115,4080,121.8C4160,129,4240,215,4320,265.2C4400,315,4480,330,4560,293.8C4640,258,4720,172,4800,121.8C4880,72,4960,57,5040,86C5120,115,5200,186,5280,186.3C5360,186,5440,115,5520,93.2C5600,72,5680,100,5720,114.7L5760,129L5760,430L5720,430C5680,430,5600,430,5520,430C5440,430,5360,430,5280,430C5200,430,5120,430,5040,430C4960,430,4880,430,4800,430C4720,430,4640,430,4560,430C4480,430,4400,430,4320,430C4240,430,4160,430,4080,430C4000,430,3920,430,3840,430C3760,430,3680,430,3600,430C3520,430,3440,430,3360,430C3280,430,3200,430,3120,430C3040,430,2960,430,2880,430C2800,430,2720,430,2640,430C2560,430,2480,430,2400,430C2320,430,2240,430,2160,430C2080,430,2000,430,1920,430C1840,430,1760,430,1680,430C1600,430,1520,430,1440,430C1360,430,1280,430,1200,430C1120,430,1040,430,960,430C880,430,800,430,720,430C640,430,560,430,480,430C400,430,320,430,240,430C160,430,80,430,40,430L0,430Z"></path></svg>